<svg aria-hidden="true" style="position: absolute; width: 0; height: 0; overflow: hidden;" version="1.1" xmlns="http://www.w3.org/2000/svg" xmlns:xlink="http://www.w3.org/1999/xlink">
<defs>
<symbol id="icon-Ellipse-29" viewBox="0 0 32 32">
<path stroke="#fff" style="stroke: var(--color1, #fff)" stroke-linejoin="miter" stroke-linecap="butt" stroke-miterlimit="4" stroke-width="3.2695" d="M30.365 16c0 7.934-6.432 14.365-14.365 14.365s-14.365-6.432-14.365-14.365c0-7.934 6.432-14.365 14.365-14.365s14.365 6.432 14.365 14.365z"></path>
</symbol>
<symbol id="icon-Instagram" viewBox="0 0 32 32">
<path d="M16 0c-8.836 0-16 7.164-16 16s7.164 16 16 16c8.836 0 16-7.164 16-16s-7.164-16-16-16zM12.482 7.518c0.91-0.041 1.201-0.052 3.516-0.052h0.003c2.316 0 2.605 0.010 3.515 0.052 0.909 0.042 1.529 0.185 2.073 0.396 0.562 0.218 1.036 0.509 1.511 0.984s0.766 0.951 0.985 1.512c0.21 0.542 0.354 1.162 0.396 2.071 0.041 0.91 0.052 1.201 0.052 3.518s-0.010 2.608-0.052 3.518c-0.043 0.908-0.186 1.528-0.396 2.071-0.219 0.561-0.51 1.037-0.985 1.511s-0.949 0.767-1.511 0.985c-0.543 0.211-1.164 0.355-2.072 0.397-0.91 0.041-1.201 0.052-3.518 0.052s-2.608-0.010-3.518-0.052c-0.908-0.042-1.528-0.185-2.071-0.397-0.561-0.218-1.037-0.51-1.511-0.985s-0.766-0.95-0.984-1.511c-0.211-0.543-0.355-1.163-0.396-2.071-0.041-0.91-0.052-1.2-0.052-3.518s0.010-2.609 0.052-3.519c0.041-0.908 0.185-1.528 0.396-2.071 0.219-0.561 0.51-1.037 0.985-1.511s0.951-0.766 1.511-0.984c0.543-0.211 1.163-0.355 2.071-0.396z"></path>
<path d="M15.717 9.004c-0.173 0-0.333-0-0.481 0v-0.002c-1.591 0.002-1.896 0.012-2.683 0.048-0.832 0.038-1.284 0.177-1.584 0.294-0.398 0.155-0.683 0.34-0.981 0.639s-0.484 0.583-0.639 0.982c-0.117 0.301-0.256 0.752-0.294 1.584-0.041 0.9-0.049 1.168-0.049 3.447s0.008 2.549 0.049 3.448c0.038 0.832 0.177 1.284 0.294 1.584 0.155 0.398 0.34 0.682 0.639 0.981s0.583 0.484 0.981 0.638c0.301 0.117 0.753 0.256 1.584 0.294 0.899 0.041 1.17 0.050 3.448 0.050s2.548-0.009 3.448-0.050c0.832-0.038 1.284-0.177 1.584-0.294 0.398-0.155 0.682-0.34 0.981-0.638s0.484-0.582 0.639-0.98c0.117-0.3 0.256-0.752 0.294-1.584 0.041-0.899 0.050-1.17 0.050-3.447s-0.009-2.548-0.050-3.447c-0.037-0.832-0.177-1.284-0.294-1.584-0.155-0.398-0.34-0.682-0.639-0.981s-0.582-0.484-0.981-0.638c-0.301-0.117-0.752-0.256-1.584-0.294-0.9-0.041-1.17-0.049-3.448-0.049-0.098 0-0.193 0-0.284 0zM20.556 10.421c-0.565 0-1.024 0.458-1.024 1.024s0.459 1.024 1.024 1.024c0.566 0 1.024-0.459 1.024-1.024s-0.458-1.024-1.024-1.024v0zM11.619 16c0-2.42 1.962-4.382 4.382-4.382s4.382 1.962 4.382 4.382c0 2.42-1.962 4.381-4.382 4.381s-4.382-1.961-4.382-4.381z"></path>
<path d="M16 13.152c1.568 0 2.837 1.269 2.837 2.848 0 1.568-1.269 2.837-2.837 2.837-1.579 0-2.848-1.269-2.848-2.837 0-1.579 1.269-2.848 2.848-2.848v0z"></path>
</symbol>
<symbol id="icon-Path-le" viewBox="0 0 19 32">
<path d="M18.029 4.843c1.137-1.091 1.137-2.887 0.045-4.024-0.568-0.568-1.296-0.818-2.046-0.818-0.728 0-1.455 0.25-1.978 0.818l-13.232 13.164c-0.523 0.523-0.818 1.25-0.818 2.001s0.296 1.478 0.818 2.001l13.232 13.164c1.091 1.137 2.887 1.137 4.024 0 1.091-1.114 1.091-2.933-0.045-4.024l-11.186-11.14 11.186-11.14z"></path>
</symbol>
<symbol id="icon-Path-ri" viewBox="0 0 19 32">
<path fill="#230b34" style="fill: var(--color2, #230b34)" d="M0.841 4.843c-1.137-1.091-1.137-2.887-0.023-4.024 0.568-0.568 1.273-0.818 2.046-0.818 0.705 0 1.432 0.25 1.955 0.818l13.232 13.164c0.523 0.523 0.841 1.25 0.841 2.001s-0.318 1.478-0.841 2.001l-13.232 13.164c-1.091 1.137-2.865 1.137-4.001 0-1.114-1.114-1.114-2.933 0.023-4.024l11.186-11.14-11.186-11.14z"></path>
</symbol>
<symbol id="icon-Path" viewBox="0 0 15 32">
<path fill="#dadada" style="fill: var(--color3, #dadada)" d="M9.922 31.981v-16h4.412l0.588-5.51h-5v-2.765c0-1.431 0.137-2.196 2.216-2.196h2.745v-5.51h-4.412c-5.314 0-7.177 2.667-7.177 7.157v3.314h-3.294v5.51h3.294v16h6.628z"></path>
</symbol>
</defs>
</svg>
